
        <svg xmlns="http://www.w3.org/2000/svg" xmlns:xlink="http://www.w3.org/1999/xlink" version="1.1" width="3181.8181818181824" height="1088.5369649107838" viewBox="0 0 3181.8181818181824 1088.5369649107838">
			
			<g transform="scale(9.090909090909092) translate(10, 10)">
				<defs id="SvgjsDefs1598"/><g id="SvgjsG1599" featureKey="e7LhAk-0" transform="matrix(0.8703461643300306,0,0,0.8703461643300306,6.9325032180138395,7.811355496819171)" fill="#fff"><g xmlns="http://www.w3.org/2000/svg"><defs><circle id="b" cx="44.9" cy="54" r="38.4"/></defs><clipPath id="a"><use xmlns:xlink="http://www.w3.org/1999/xlink" xlink:href="#b" overflow="visible"/></clipPath><path clip-path="url(#a)" d="M78.4,92.5c0.9-0.4,1.7-0.9,2.4-1.6c0.6-0.6,1-1.2,1.4-1.9c2.4,0.6,5.1-0.1,7-2   c1-1,1.6-2.1,1.9-3.3c0.9-0.4,1.7-0.9,2.4-1.6c0.9-0.9,1.4-1.9,1.8-2.9c2.1,0.1,4.2-0.6,5.7-2.1c1.8-1.8,2.4-4.2,2.1-6.5   c0.2-0.2,0.5-0.4,0.7-0.6c1.4-1.4,2.1-3.2,2.2-5c1.6-2.8,1.1-6.4-1.2-8.8c-2.9-2.9-7.6-2.9-10.5,0c-1.4,1.4-2.1,3.2-2.2,5   c-0.8,1.5-1.1,3.2-0.8,4.8c-0.2,0.2-0.5,0.4-0.7,0.6c-0.9,0.9-1.4,1.9-1.8,2.9c-2.1-0.1-4.2,0.6-5.7,2.1c-1,1-1.6,2.1-1.9,3.3   c-0.9,0.4-1.7,0.9-2.4,1.6c-0.4,0.4-0.7,0.8-1,1.2c-1.7-0.6-3.6-0.6-5.3,0.1c-0.4-0.9-1-1.8-1.7-2.6c-3-3-8-3.1-11.1-0.1   c-0.2-1.7-1-3.4-2.3-4.7c-1.1-1.1-2.5-1.8-4-2.1c0.1-1.8-0.4-3.6-1.5-5.1c0.2-1.8-0.2-3.7-1.2-5.3c0.3-0.1,0.5-0.2,0.7-0.4   c0.4-0.4,0.5-0.9,0.4-1.4c0.4,0,0.7-0.2,1-0.4c0.4-0.4,0.5-1,0.4-1.6c0.4,0,0.9-0.1,1.2-0.4c0.3-0.3,0.5-0.8,0.4-1.2   c0.2-0.1,0.5-0.2,0.6-0.4c0.3-0.3,0.4-0.7,0.4-1c0.1,0,0.2-0.1,0.3-0.2c0.1-0.1,0.2-0.3,0.3-0.5c0.3,0,0.6-0.1,0.8-0.3   c0.2-0.2,0.3-0.6,0.3-0.9c0,0,0,0,0.1,0c0.4-0.4,0.4-1,0-1.4c-0.4-0.4-1-0.4-1.4,0c-0.2,0.2-0.3,0.4-0.3,0.6   c-0.3,0-0.6,0.1-0.8,0.3c-0.2,0.2-0.3,0.5-0.3,0.8c0,0,0,0.1-0.1,0.1c-0.5-0.1-1,0.1-1.4,0.4c-0.3,0.3-0.5,0.8-0.4,1.2   c0,0-0.1,0-0.1,0.1c-0.4-0.1-0.9,0.1-1.3,0.4c-0.3,0.3-0.5,0.7-0.4,1.2c-0.5-0.2-1.2-0.1-1.6,0.4c-0.2,0.2-0.4,0.5-0.4,0.8   c-0.6-0.2-1.2-0.1-1.7,0.3c-0.2,0.2-0.3,0.4-0.4,0.6c-0.7-0.3-1.4-0.4-2.1-0.5c-0.1-0.3-0.2-0.5-0.4-0.7c0,0-0.1-0.1-0.2-0.1   c0.1-0.1,0.3-0.2,0.4-0.3c0.6-0.6,0.6-1.6,0-2.2c0,0-0.1-0.1-0.1-0.1c0,0,0.1-0.1,0.1-0.1c0.4-0.4,0.5-0.9,0.4-1.4   c0.4,0,0.8-0.1,1.1-0.4c0.3-0.3,0.5-0.8,0.4-1.2c0.3-0.1,0.5-0.2,0.7-0.4c0.4-0.4,0.5-1,0.4-1.6c0.4,0,0.7-0.2,1-0.4   c0.4-0.4,0.5-1.1,0.4-1.6c0.1,0,0.1,0,0.2-0.1c0.4,0.2,0.8,0.1,1.1-0.2c0.2-0.2,0.3-0.6,0.3-0.9c0,0,0,0,0.1,0c0.4-0.4,0.4-1,0-1.4   c-0.4-0.4-1-0.4-1.4,0c-0.2,0.2-0.3,0.4-0.3,0.6c-0.3,0-0.6,0.1-0.8,0.3c-0.2,0.2-0.3,0.5-0.3,0.7c-0.5-0.1-0.9,0.1-1.3,0.4   c-0.3,0.3-0.4,0.6-0.4,0.9c-0.5-0.2-1.1-0.1-1.6,0.4c-0.4,0.4-0.5,0.8-0.4,1.3c-0.5-0.1-0.9,0.1-1.3,0.4c-0.1,0.1-0.2,0.3-0.3,0.4   c-0.5-0.2-1.2-0.1-1.6,0.3c-0.1,0.1-0.3,0.3-0.3,0.5c-0.1-0.1-0.1-0.2-0.2-0.3c-0.6-0.6-1.6-0.6-2.2,0c-0.1,0.1-0.1,0.1-0.1,0.2   c-0.9-0.2-1.9-0.2-2.8,0c0-0.4-0.2-0.8-0.5-1.1c-0.2-0.2-0.5-0.4-0.9-0.4c-0.3-0.5-0.7-0.9-1.1-1.3c-1.1-1.1-2.5-1.8-3.9-2.1   c0-0.1,0-0.2-0.1-0.3c0.7-2.6,0-5.5-2.1-7.6c-1.8-1.8-4.2-2.5-6.5-2.3c1-1.9,1.2-4.2,0.5-6.2c1.4-1.6,2-3.7,1.9-5.8   c1.6-0.2,3.1-0.9,4.4-2.1c0.8-0.8,1.3-1.7,1.7-2.6c2.4,0.6,5-0.1,6.9-2c2.1-2.1,2.7-5.2,1.7-7.8c1.9,0,3.8-0.7,5.2-2.2   c2.9-2.9,2.9-7.6,0-10.5c-2.9-2.9-7.6-2.9-10.5,0c-0.9,0.9-1.6,2-1.9,3.2c-2.4-0.5-4.9,0.2-6.7,2c-2,2-2.6,4.7-1.9,7.2   c-1.8,0-3.6,0.8-5,2.2c-1.5,1.5-2.2,3.4-2.2,5.3c-1.9,0.1-3.8,0.9-5.2,2.3c-2.2,2.2-2.8,5.4-1.9,8.2c-2.3,2.6-2.5,6.4-0.8,9.3   c-0.5,0.2-0.9,0.5-1.3,0.9c-1.1,1.1-1.6,2.5-1.6,4.2c-3.5,0.1-6.5,1.1-8.5,3.1c-7.9,7.9-0.5,28,16.5,44.9   c17,17,37.1,24.3,44.9,16.5c0.7-0.7,1.2-1.4,1.7-2.3c2.9,0.9,5.5,0.6,7.2-1c4.4,3,9.3,3.6,11.8,1.1C79,98.3,79.3,95.5,78.4,92.5z"/></g><path xmlns="http://www.w3.org/2000/svg" d="M86.8,12.1l0-0.1l-0.2-0.2l-0.1,0c-0.1,0-1.7-0.4-3.9-0.4c-2.6,0-6.2,0.5-8.5,2.8l-8.7,8.7  c-0.7,0.3-2,0.6-4.8,0.6c-5.2,0-7,1.9-9.4,4.3l-0.5,0.5c-0.2,0.2-1,1,3.1,6.2L49.2,39c-0.2,0.2-0.4,0.6-0.4,0.9  c0,0.3,0.1,0.7,0.4,0.9l1.9,1.9c0.5,0.5,1.3,0.5,1.8,0l4.2-4.2c0.5,0.6,0.9,1,1.3,1.4c0.4,0.4,0.9,0.8,1.4,1.3l-4.2,4.2  c-0.5,0.5-0.5,1.3,0,1.8l1.9,1.9c0.2,0.2,0.6,0.4,0.9,0.4s0.7-0.1,0.9-0.4l4.6-4.6c1.2,0.9,4.4,3.3,5.6,3.3c0.3,0,0.5-0.1,0.6-0.2  l0.5-0.5c2.4-2.3,4.2-4.2,4.3-9.4c0-2.7,0.3-4,0.5-4.6l8.8-8.8C88.5,20.4,86.9,12.5,86.8,12.1z M71.3,26.2l-2.2-0.7l8.9-5.3  l-3.8,4.7l-0.5,0.6l0.8,0.2l2.2,0.5l-9.3,5.3l4.1-4.5l0.5-0.6L71.3,26.2z M57.6,37.5l-0.4-0.4l-5,5c-0.1,0.1-0.3,0.1-0.4,0l-1.9-1.9  c-0.1-0.1-0.1-0.3,0-0.4l5.2-5.2l-0.2-0.3l-0.1-0.1c-1.6-2-3.3-4.6-3.3-5.2l0.4-0.4c2.3-2.3,3.9-3.9,8.7-4c2.4,0,4.2-0.3,5.2-0.8  l8.9-8.8c2.1-2.1,5.4-2.5,7.8-2.5c1.5,0,2.7,0.2,3.3,0.3L80,18.5l-12.1,7.2l3.2,1l-6.2,6.9l0.2-0.3l-6,6  C58.7,38.8,58.2,38.2,57.6,37.5z"/><circle xmlns="http://www.w3.org/2000/svg" cx="52.5" cy="16.2" r="0.6"/><circle xmlns="http://www.w3.org/2000/svg" cx="83.4" cy="29.8" r="0.6"/><circle xmlns="http://www.w3.org/2000/svg" cx="56.8" cy="15.2" r="0.5"/><circle xmlns="http://www.w3.org/2000/svg" cx="29.7" cy="34.9" r="0.5"/><circle xmlns="http://www.w3.org/2000/svg" cx="20.6" cy="69.5" r="0.5"/><circle xmlns="http://www.w3.org/2000/svg" cx="39.1" cy="40.3" r="1.1"/><circle xmlns="http://www.w3.org/2000/svg" cx="21.7" cy="57.6" r="1.1"/><circle xmlns="http://www.w3.org/2000/svg" cx="46" cy="61.7" r="0.6"/><circle xmlns="http://www.w3.org/2000/svg" cx="57.8" cy="59.9" r="0.4"/><circle xmlns="http://www.w3.org/2000/svg" cx="66.7" cy="58" r="0.9"/><circle xmlns="http://www.w3.org/2000/svg" cx="93" cy="44" r="0.6"/><circle xmlns="http://www.w3.org/2000/svg" cx="81.6" cy="46.1" r="0.8"/><circle xmlns="http://www.w3.org/2000/svg" cx="18.9" cy="43.2" r="0.8"/><circle xmlns="http://www.w3.org/2000/svg" cx="58.5" cy="79.4" r="0.4"/><circle xmlns="http://www.w3.org/2000/svg" cx="95.5" cy="42" r="0.4"/><circle xmlns="http://www.w3.org/2000/svg" cx="95.7" cy="45.7" r="0.4"/><circle xmlns="http://www.w3.org/2000/svg" cx="67.4" cy="8.2" r="0.5"/><polygon xmlns="http://www.w3.org/2000/svg" points="28.9,64.4 33.6,64.8 28.9,65.2 28.5,69.9 28.1,65.2 23.4,64.8 28.1,64.4 28.5,59.7 "/><polygon xmlns="http://www.w3.org/2000/svg" points="49.3,74.6 52.1,74.8 49.3,75.1 49.1,77.9 48.8,75.1 46,74.8 48.8,74.6 49.1,71.8 "/><polygon xmlns="http://www.w3.org/2000/svg" points="80.7,62 83.2,62.2 80.7,62.5 80.5,64.9 80.3,62.5 77.9,62.2 80.3,62 80.5,59.6 "/><polygon xmlns="http://www.w3.org/2000/svg" points="39.9,21.9 47.1,22.5 39.9,23.1 39.2,30.4 38.6,23.1 31.3,22.5 38.6,21.9 39.2,14.6 "/></g><g id="SvgjsG1600" featureKey="Qg0WB5-0" transform="matrix(3.6132138691674416,0,0,3.6132138691674416,120,-1.728144417658136)" fill="#fff"><path d="M2.96 20.16 l-0.44 0 c-1.4 0 -2.52 -1.12 -2.52 -2.52 l0 -9.64 c0 -1.4 1.12 -2.54 2.52 -2.54 l0.44 0 c1.4 0 2.52 1.14 2.52 2.54 l0 1.02 l-1.96 0 l0 -1.02 c0 -0.34 -0.24 -0.58 -0.56 -0.58 l-0.44 0 c-0.3 0 -0.58 0.24 -0.58 0.58 l0 9.64 c0 0.3 0.28 0.58 0.58 0.58 l0.44 0 c0.32 0 0.56 -0.28 0.56 -0.58 l0 -5.2 l-1.12 0 l0 -1.94 l3.08 0 l0 7.14 c0 1.4 -1.12 2.52 -2.52 2.52 z M11.440000000000001 16.38 l0 3.6 l-1.84 0 l0 -0.06 c-0.18 0.04 -0.36 0.06 -0.56 0.06 c-1.4 0 -2.52 -1.12 -2.52 -2.52 l0 -2.14 c0 -0.56 0.22 -1.08 0.62 -1.48 c0.38 -0.38 0.9 -0.6 1.46 -0.6 l0.96 0 l0 -2.16 c0 -0.3 -0.26 -0.56 -0.56 -0.56 l-0.1 0 c-0.32 0 -0.56 0.26 -0.56 0.56 l0 1.52 l-1.86 0 l0 -1.52 c0 -1.34 1.08 -2.42 2.42 -2.42 l0.1 0 c1.34 0 2.42 1.08 2.42 2.42 z M9.040000000000001 18.12 c0.3 0 0.56 -0.24 0.56 -0.54 l-0.02 -2.46 l-0.98 -0.02 c-0.08 0 -0.12 0.04 -0.16 0.06 c-0.02 0.04 -0.06 0.08 -0.06 0.16 l0 2.14 c0 0.36 0.3 0.66 0.66 0.66 z M15.64 18.08 l0 1.9 l-0.58 0 c-1.44 0 -2.62 -1.18 -2.62 -2.62 l0 -11.64 l1.9 0 l0 11.64 c0 0.38 0.32 0.72 0.72 0.72 l0.58 0 z M20.96 16.38 l0 3.6 l-1.84 0 l0 -0.06 c-0.18 0.04 -0.36 0.06 -0.56 0.06 c-1.4 0 -2.52 -1.12 -2.52 -2.52 l0 -2.14 c0 -0.56 0.22 -1.08 0.62 -1.48 c0.38 -0.38 0.9 -0.6 1.46 -0.6 l0.96 0 l0 -2.16 c0 -0.3 -0.26 -0.56 -0.56 -0.56 l-0.1 0 c-0.32 0 -0.56 0.26 -0.56 0.56 l0 1.52 l-1.86 0 l0 -1.52 c0 -1.34 1.08 -2.42 2.42 -2.42 l0.1 0 c1.34 0 2.42 1.08 2.42 2.42 z M18.56 18.12 c0.3 0 0.56 -0.24 0.56 -0.54 l-0.02 -2.46 l-0.98 -0.02 c-0.08 0 -0.12 0.04 -0.16 0.06 c-0.02 0.04 -0.06 0.08 -0.06 0.16 l0 2.14 c0 0.36 0.3 0.66 0.66 0.66 z M27.28 8.72 l-1.88 5.86 l1.72 5.38 l-1.98 0 l-0.74 -2.28 l-0.74 2.28 l-2 0 l1.74 -5.38 l-1.88 -5.86 l2 0 l0.88 2.74 l0.88 -2.74 l2 0 z M32.540000000000006 8.68 l1.98 0 l-2.82 11.7 s-0.44 2.8 -3.1 2.86 l-0.08 0 l0 0 l0 0 l0 0 l0 -1.94 c0.2 0 0.42 -0.06 0.62 -0.16 c0 0 0.96 -0.28 0.76 -2 l-2.52 -10.46 l2 0 l1.58 6.54 z M38.480000000000004 20.16 l-0.44 0 c-1.4 0 -2.52 -1.12 -2.52 -2.52 l0 -9.64 c0 -1.4 1.12 -2.54 2.52 -2.54 l0.44 0 c1.4 0 2.52 1.14 2.52 2.54 l0 1.02 l-1.96 0 l0 -1.02 c0 -0.34 -0.24 -0.58 -0.56 -0.58 l-0.44 0 c-0.3 0 -0.58 0.24 -0.58 0.58 l0 9.64 c0 0.3 0.28 0.58 0.58 0.58 l0.44 0 c0.32 0 0.56 -0.28 0.56 -0.58 l0 -5.2 l-1.12 0 l0 -1.94 l3.08 0 l0 7.14 c0 1.4 -1.12 2.52 -2.52 2.52 z M46.96 16.38 l0 3.6 l-1.84 0 l0 -0.06 c-0.18 0.04 -0.36 0.06 -0.56 0.06 c-1.4 0 -2.52 -1.12 -2.52 -2.52 l0 -2.14 c0 -0.56 0.22 -1.08 0.62 -1.48 c0.38 -0.38 0.9 -0.6 1.46 -0.6 l0.96 0 l0 -2.16 c0 -0.3 -0.26 -0.56 -0.56 -0.56 l-0.1 0 c-0.32 0 -0.56 0.26 -0.56 0.56 l0 1.52 l-1.86 0 l0 -1.52 c0 -1.34 1.08 -2.42 2.42 -2.42 l0.1 0 c1.34 0 2.42 1.08 2.42 2.42 z M44.56 18.12 c0.3 0 0.56 -0.24 0.56 -0.54 l-0.02 -2.46 l-0.98 -0.02 c-0.08 0 -0.12 0.04 -0.16 0.06 c-0.02 0.04 -0.06 0.08 -0.06 0.16 l0 2.14 c0 0.36 0.3 0.66 0.66 0.66 z M51.879999999999995 18.14 l0 1.86 l-4.34 0 l2.12 -9.48 l-1.7 0 l0 -1.88 l3.94 0 l-2.12 9.5 l2.1 0 z M55.5 19.96 c-1.44 0 -2.6 -1.18 -2.6 -2.62 l0 -6.24 c0 -1.32 1.08 -2.4 2.4 -2.4 l0.42 0 c1.32 0 2.4 1.08 2.4 2.4 l0 2.62 l-3.36 0.06 l0 3.56 c0 0.42 0.32 0.76 0.74 0.76 s0.76 -0.34 0.76 -0.76 l0 -1.24 l1.86 0 l0 1.24 c0 1.44 -1.18 2.62 -2.62 2.62 z M55.72 10.54 l-0.42 0 c-0.3 0 -0.54 0.26 -0.54 0.56 l0 0.84 l1.5 -0.04 l0 -0.8 c0 -0.3 -0.24 -0.56 -0.54 -0.56 z"/></g>
			</g>
		</svg>
	